<?xml version="1.0" encoding="UTF-8"?>
<!DOCTYPE svg PUBLIC "-//W3C//DTD SVG 1.1//EN" "http://www.w3.org/Graphics/SVG/1.1/DTD/svg11.dtd">
<svg xmlns="http://www.w3.org/2000/svg" version="1.1" width="128px" height="128px" style="shape-rendering:geometricPrecision; text-rendering:geometricPrecision; image-rendering:optimizeQuality; fill-rule:evenodd; clip-rule:evenodd" xmlns:xlink="http://www.w3.org/1999/xlink">
<g><path style="opacity:1" fill="#ae795a" d="M 32.5,13.5 C 35.1873,13.3359 37.854,13.5026 40.5,14C 37.4788,15.1798 34.4788,16.3465 31.5,17.5C 31.4326,16.0413 31.7659,14.7079 32.5,13.5 Z"/></g>
<g><path style="opacity:0.999" fill="#ce9d84" d="M 49.5,14.5 C 50.8271,39.9311 50.8271,65.2644 49.5,90.5C 48.1667,90.8333 48.1667,91.1667 49.5,91.5C 50.1667,91.5 50.8333,91.5 51.5,91.5C 51.5,91.8333 51.5,92.1667 51.5,92.5C 50.7752,96.3953 50.1086,100.395 49.5,104.5C 47.6675,103.752 46.0009,102.752 44.5,101.5C 45.1031,97.7272 45.7698,94.0606 46.5,90.5C 47.8333,90.1667 47.8333,89.8333 46.5,89.5C 46.5,89.1667 46.5,88.8333 46.5,88.5C 47.8333,64.1667 47.8333,39.8333 46.5,15.5C 46.5,15.1667 46.5,14.8333 46.5,14.5C 47.3478,13.375 48.3478,13.375 49.5,14.5 Z"/></g>
<g><path style="opacity:1" fill="#9a6340" d="M 32.5,13.5 C 31.7659,14.7079 31.4326,16.0413 31.5,17.5C 29.4504,19.5475 27.117,21.2141 24.5,22.5C 23.5386,20.7354 23.2053,18.7354 23.5,16.5C 26.1461,14.7475 29.1461,13.7475 32.5,13.5 Z"/></g>
<g><path style="opacity:1" fill="#c8987d" d="M 46.5,15.5 C 47.8333,39.8333 47.8333,64.1667 46.5,88.5C 45.1732,64.0689 45.1732,39.7356 46.5,15.5 Z"/></g>
<g><path style="opacity:1" fill="#d5a48d" d="M 59.5,15.5 C 56.9179,15.0254 54.9179,15.6921 53.5,17.5C 52.8333,42.1667 52.1667,66.8333 51.5,91.5C 50.8333,91.5 50.1667,91.5 49.5,91.5C 49.5,91.1667 49.5,90.8333 49.5,90.5C 50.8271,65.2644 50.8271,39.9311 49.5,14.5C 52.8969,13.5062 56.2302,13.8396 59.5,15.5 Z"/></g>
<g><path style="opacity:1" fill="#c39176" d="M 46.5,14.5 C 46.5,14.8333 46.5,15.1667 46.5,15.5C 45.1732,39.7356 45.1732,64.0689 46.5,88.5C 46.5,88.8333 46.5,89.1667 46.5,89.5C 46.5,89.8333 46.5,90.1667 46.5,90.5C 45.7698,94.0606 45.1031,97.7272 44.5,101.5C 43.5,101.167 42.8333,100.5 42.5,99.5C 42.185,95.6286 42.5184,91.9619 43.5,88.5C 44.8333,88.1667 44.8333,87.8333 43.5,87.5C 42.8333,86.8333 42.1667,86.1667 41.5,85.5C 42.8333,62.8333 42.8333,40.1667 41.5,17.5C 42.6594,15.7497 44.326,14.7497 46.5,14.5 Z"/></g>
<g><path style="opacity:0.995" fill="#d8a891" d="M 53.5,17.5 C 53.1766,42.9078 53.5099,68.2411 54.5,93.5C 53.1667,93.8333 53.1667,94.1667 54.5,94.5C 54.8333,94.5 55.1667,94.5 55.5,94.5C 55.5,95.1667 55.8333,95.5 56.5,95.5C 56.8333,95.5 57.1667,95.5 57.5,95.5C 57.5,95.8333 57.5,96.1667 57.5,96.5C 56.5184,99.9619 56.185,103.629 56.5,107.5C 54.0462,106.773 51.7128,105.773 49.5,104.5C 50.1086,100.395 50.7752,96.3953 51.5,92.5C 51.5,92.1667 51.5,91.8333 51.5,91.5C 52.1667,66.8333 52.8333,42.1667 53.5,17.5 Z"/></g>
<g><path style="opacity:1" fill="#bc886c" d="M 41.5,17.5 C 42.8333,40.1667 42.8333,62.8333 41.5,85.5C 41.2172,84.7109 40.7172,84.0442 40,83.5C 39.5,61.8359 39.3334,40.1692 39.5,18.5C 39.8417,17.6618 40.5084,17.3284 41.5,17.5 Z"/></g>
<g><path style="opacity:1" fill="#b58164" d="M 39.5,18.5 C 39.3334,40.1692 39.5,61.8359 40,83.5C 40.7172,84.0442 41.2172,84.7109 41.5,85.5C 42.1667,86.1667 42.8333,86.8333 43.5,87.5C 43.5,87.8333 43.5,88.1667 43.5,88.5C 42.5184,91.9619 42.185,95.6286 42.5,99.5C 39.8908,98.5569 37.8908,96.8903 36.5,94.5C 37.4834,90.7016 37.8168,86.7016 37.5,82.5C 35.0274,82.9118 33.6941,81.9118 33.5,79.5C 33.8333,79.5 34.1667,79.5 34.5,79.5C 35.4971,60.0071 35.8304,40.3404 35.5,20.5C 36.6049,19.3995 37.9382,18.7329 39.5,18.5 Z"/></g>
<g><path style="opacity:1" fill="#8c532d" d="M 23.5,16.5 C 23.2053,18.7354 23.5386,20.7354 24.5,22.5C 20.4413,27.0671 16.9413,32.0671 14,37.5C 13.6222,32.714 14.2889,28.0473 16,23.5C 17.7364,20.2608 20.2364,17.9274 23.5,16.5 Z"/></g>
<g><path style="opacity:1" fill="#e4b5a1" d="M 63.5,17.5 C 64.1667,17.5 64.8333,17.5 65.5,17.5C 67.2838,17.8925 68.9505,18.5592 70.5,19.5C 70.5,21.1667 70.5,22.8333 70.5,24.5C 66.3601,25.0443 65.6935,24.0443 68.5,21.5C 65.0409,19.9681 62.0409,20.8015 59.5,24C 59.7284,24.3988 60.0618,24.5654 60.5,24.5C 59.8432,36.2597 59.5098,48.0931 59.5,60C 59.501,71.8533 60.1677,83.3533 61.5,94.5C 61.0472,95.4584 60.3805,96.2917 59.5,97C 63.624,99.3972 67.9573,101.231 72.5,102.5C 72.5,105.833 72.5,109.167 72.5,112.5C 66.7004,112.009 61.367,110.343 56.5,107.5C 56.185,103.629 56.5184,99.9619 57.5,96.5C 58.8333,96.1667 58.8333,95.8333 57.5,95.5C 57.1667,95.5 56.8333,95.5 56.5,95.5C 55.8333,95.5 55.5,95.1667 55.5,94.5C 56.1667,69.8333 56.8333,45.1667 57.5,20.5C 59.3713,19.2028 61.3713,18.2028 63.5,17.5 Z M 68.5,21.5 C 66.1016,21.2594 64.1016,21.9261 62.5,23.5C 61.8333,23.5 61.5,23.8333 61.5,24.5C 61.1667,24.5 60.8333,24.5 60.5,24.5C 60.0618,24.5654 59.7284,24.3988 59.5,24C 62.0409,20.8015 65.0409,19.9681 68.5,21.5 Z"/></g>
<g><path style="opacity:1" fill="#deae99" d="M 59.5,15.5 C 61.7857,15.595 63.7857,16.2616 65.5,17.5C 64.8333,17.5 64.1667,17.5 63.5,17.5C 60.4359,17.1437 57.7693,17.9771 55.5,20C 56.0944,20.4643 56.7611,20.631 57.5,20.5C 56.8333,45.1667 56.1667,69.8333 55.5,94.5C 55.1667,94.5 54.8333,94.5 54.5,94.5C 54.5,94.1667 54.5,93.8333 54.5,93.5C 53.5099,68.2411 53.1766,42.9078 53.5,17.5C 54.9179,15.6921 56.9179,15.0254 59.5,15.5 Z"/></g>
<g><path style="opacity:1" fill="#aa7554" d="M 35.5,20.5 C 35.8304,40.3404 35.4971,60.0071 34.5,79.5C 33.8783,78.3734 33.045,77.3734 32,76.5C 31.5274,58.5301 31.3607,40.8635 31.5,23.5C 32.795,22.5116 34.1283,21.5116 35.5,20.5 Z"/></g>
<g><path style="opacity:1" fill="#d5a58e" d="M 70.5,19.5 C 72.5,20.5 74.5,21.5 76.5,22.5C 76.2786,25.2788 76.612,27.9455 77.5,30.5C 76.1667,30.5 74.8333,30.5 73.5,30.5C 73.5,29.8333 73.1667,29.5 72.5,29.5C 72.1667,28.1667 71.8333,28.1667 71.5,29.5C 70.5,29.1667 69.8333,28.5 69.5,27.5C 71.3628,27.1541 72.1961,26.1541 72,24.5C 69.7908,24.9892 67.9575,25.9892 66.5,27.5C 66.1667,27.5 65.8333,27.5 65.5,27.5C 65.9118,25.0274 64.9118,23.6941 62.5,23.5C 64.1016,21.9261 66.1016,21.2594 68.5,21.5C 65.6935,24.0443 66.3601,25.0443 70.5,24.5C 70.5,22.8333 70.5,21.1667 70.5,19.5 Z M 69.5,27.5 C 68.5,27.5 67.5,27.5 66.5,27.5C 67.9575,25.9892 69.7908,24.9892 72,24.5C 72.1961,26.1541 71.3628,27.1541 69.5,27.5 Z"/></g>
<g><path style="opacity:1" fill="#edc0ad" d="M 62.5,23.5 C 64.9118,23.6941 65.9118,25.0274 65.5,27.5C 64.9569,27.56 64.6236,27.8933 64.5,28.5C 65.325,29.3857 66.325,29.719 67.5,29.5C 67.5,47.1667 67.5,64.8333 67.5,82.5C 66.1944,84.8162 64.8611,87.1495 63.5,89.5C 61.511,68.1924 60.8443,46.5258 61.5,24.5C 61.5,23.8333 61.8333,23.5 62.5,23.5 Z"/></g>
<g><path style="opacity:0.995" fill="#a06a47" d="M 31.5,23.5 C 31.3607,40.8635 31.5274,58.5301 32,76.5C 33.045,77.3734 33.8783,78.3734 34.5,79.5C 34.1667,79.5 33.8333,79.5 33.5,79.5C 32.8826,79.3893 32.3826,79.056 32,78.5C 31.8213,82.0252 31.3213,85.3586 30.5,88.5C 28.086,87.0892 26.4194,85.0892 25.5,82.5C 26.236,79.3046 26.9027,75.9713 27.5,72.5C 27.188,58.1745 26.188,44.1745 24.5,30.5C 26.5,27.8333 28.8333,25.5 31.5,23.5 Z"/></g>
<g><path style="opacity:1" fill="#e9bca8" d="M 60.5,24.5 C 60.8333,24.5 61.1667,24.5 61.5,24.5C 60.8443,46.5258 61.511,68.1924 63.5,89.5C 62.5592,91.0495 61.8925,92.7162 61.5,94.5C 60.1677,83.3533 59.501,71.8533 59.5,60C 59.5098,48.0931 59.8432,36.2597 60.5,24.5 Z"/></g>
<g><path style="opacity:1" fill="#c8977d" d="M 76.5,22.5 C 78.5,23.8333 80.5,25.1667 82.5,26.5C 83.299,29.4299 83.6323,32.4299 83.5,35.5C 82.5084,35.3284 81.8417,35.6618 81.5,36.5C 80.8333,36.5 80.1667,36.5 79.5,36.5C 79.5,35.8333 79.1667,35.5 78.5,35.5C 78.5,34.8333 78.1667,34.5 77.5,34.5C 77.5,33.8333 77.1667,33.5 76.5,33.5C 76.5569,32.391 76.8902,31.391 77.5,30.5C 76.612,27.9455 76.2786,25.2788 76.5,22.5 Z"/></g>
<g><path style="opacity:1" fill="#e2b29e" d="M 65.5,27.5 C 65.8333,28.8333 66.1667,28.8333 66.5,27.5C 67.5,27.5 68.5,27.5 69.5,27.5C 69.8333,28.5 70.5,29.1667 71.5,29.5C 71.8333,29.5 72.1667,29.5 72.5,29.5C 73.1667,29.5 73.5,29.8333 73.5,30.5C 72.8592,31.4822 72.1925,32.4822 71.5,33.5C 71.6236,34.1067 71.9569,34.44 72.5,34.5C 72.5,48.5 72.5,62.5 72.5,76.5C 71.5569,79.1092 69.8903,81.1092 67.5,82.5C 67.5,64.8333 67.5,47.1667 67.5,29.5C 66.325,29.719 65.325,29.3857 64.5,28.5C 64.6236,27.8933 64.9569,27.56 65.5,27.5 Z"/></g>
<g><path style="opacity:0.969" fill="#b68265" d="M 82.5,26.5 C 87.1256,29.4578 91.1256,33.1245 94.5,37.5C 93.5041,37.5858 92.6708,37.2524 92,36.5C 91.0386,40.4919 91.5386,44.1585 93.5,47.5C 91.7085,47.634 90.0418,47.3007 88.5,46.5C 88.5,45.8333 88.1667,45.5 87.5,45.5C 87.5323,43.3812 86.5323,42.0478 84.5,41.5C 84.5,40.8333 84.1667,40.5 83.5,40.5C 83.5,39.8333 83.1667,39.5 82.5,39.5C 82.5,38.8333 82.1667,38.5 81.5,38.5C 81.5,37.8333 81.5,37.1667 81.5,36.5C 82.4916,36.6716 83.1583,36.3382 83.5,35.5C 83.6323,32.4299 83.299,29.4299 82.5,26.5 Z"/></g>
<g><path style="opacity:1" fill="#d8a892" d="M 76.5,33.5 C 77.1667,33.5 77.5,33.8333 77.5,34.5C 78.1667,34.5 78.5,34.8333 78.5,35.5C 79.1667,35.5 79.5,35.8333 79.5,36.5C 78.7101,37.7942 77.7101,38.9609 76.5,40C 76.7284,40.3988 77.0618,40.5654 77.5,40.5C 76.1667,51.1667 76.1667,61.8333 77.5,72.5C 75.8333,73.8333 74.1667,75.1667 72.5,76.5C 72.5,62.5 72.5,48.5 72.5,34.5C 73.4033,32.3796 74.7367,32.0462 76.5,33.5 Z"/></g>
<g><path style="opacity:0.999" fill="#cb9a81" d="M 81.5,38.5 C 82.1667,38.5 82.5,38.8333 82.5,39.5C 83.1667,39.5 83.5,39.8333 83.5,40.5C 84.1667,40.5 84.5,40.8333 84.5,41.5C 83.8333,42.5 83.1667,43.5 82.5,44.5C 81.1667,44.5 80.5,45.1667 80.5,46.5C 81.464,53.7463 81.7973,61.0796 81.5,68.5C 80.5,70.1667 79.1667,71.5 77.5,72.5C 76.1667,61.8333 76.1667,51.1667 77.5,40.5C 78.6049,39.3995 79.9382,38.7329 81.5,38.5 Z"/></g>
<g><path style="opacity:0.988" fill="#a16b49" d="M 95.5,39.5 C 97.2624,40.2623 98.2624,41.5956 98.5,43.5C 98.5,48.8333 98.5,54.1667 98.5,59.5C 96.8333,60.1667 95.1667,60.8333 93.5,61.5C 95.2949,54.3794 95.9616,47.0461 95.5,39.5 Z"/></g>
<g><path style="opacity:0.904" fill="#98613d" d="M 98.5,43.5 C 102.809,48.0956 106.142,53.4289 108.5,59.5C 105.348,59.7121 102.015,59.7121 98.5,59.5C 98.5,54.1667 98.5,48.8333 98.5,43.5 Z"/></g>
<g><path style="opacity:0.972" fill="#c18e74" d="M 82.5,45.5 C 83.7251,46.1522 84.3917,47.3189 84.5,49C 85.3182,54.4706 85.6516,59.9706 85.5,65.5C 84.5637,66.9744 83.2303,67.9744 81.5,68.5C 81.7973,61.0796 81.464,53.7463 80.5,46.5C 81.1667,46.1667 81.8333,45.8333 82.5,45.5 Z"/></g>
<g><path style="opacity:0.341" fill="#9c6543" d="M 14.5,45.5 C 14.0578,49.1545 13.7244,52.8212 13.5,56.5C 12.8389,54.866 12.5056,53.0326 12.5,51C 12.5465,48.7047 13.2132,46.8714 14.5,45.5 Z"/></g>
<g><path style="opacity:1" fill="#8b522b" d="M 21.5,34.5 C 22.8279,39.2876 23.4946,44.4543 23.5,50C 23.3333,55.1667 23.1667,60.3333 23,65.5C 22.3333,66.8333 21.6667,66.8333 21,65.5C 20.8171,68.3647 20.3171,71.0314 19.5,73.5C 16.1268,68.3996 14.1268,62.733 13.5,56.5C 13.7244,52.8212 14.0578,49.1545 14.5,45.5C 16.4385,41.5657 18.7719,37.899 21.5,34.5 Z"/></g>
<g><path style="opacity:1" fill="#b98669" d="M 87.5,45.5 C 88.1667,45.5 88.5,45.8333 88.5,46.5C 88.5,47.5 88.5,48.5 88.5,49.5C 90.2161,49.3713 91.8828,49.038 93.5,48.5C 92.8902,49.391 92.5569,50.391 92.5,51.5C 92.1667,51.5 91.8333,51.5 91.5,51.5C 90.2132,52.8714 89.5465,54.7047 89.5,57C 89.5056,59.0326 89.8389,60.866 90.5,62.5C 89.1007,63.8897 87.4341,64.8897 85.5,65.5C 85.6516,59.9706 85.3182,54.4706 84.5,49C 84.3917,47.3189 83.7251,46.1522 82.5,45.5C 82.5,45.1667 82.5,44.8333 82.5,44.5C 83.4959,44.5858 84.3292,44.2524 85,43.5C 85.7083,44.3805 86.5416,45.0472 87.5,45.5 Z M 88.5,49.5 C 87.9976,51.0847 86.9976,51.5847 85.5,51C 86.2438,49.9614 87.2438,49.4614 88.5,49.5 Z"/></g>
<g><path style="opacity:1" fill="#ad7858" d="M 94.5,37.5 C 94.8333,38.1667 95.1667,38.8333 95.5,39.5C 95.9616,47.0461 95.2949,54.3794 93.5,61.5C 92.609,62.1098 91.609,62.4431 90.5,62.5C 89.8389,60.866 89.5056,59.0326 89.5,57C 89.5465,54.7047 90.2132,52.8714 91.5,51.5C 91.8333,52.8333 92.1667,52.8333 92.5,51.5C 92.5569,50.391 92.8902,49.391 93.5,48.5C 93.5,48.1667 93.5,47.8333 93.5,47.5C 91.5386,44.1585 91.0386,40.4919 92,36.5C 92.6708,37.2524 93.5041,37.5858 94.5,37.5 Z"/></g>
<g><path style="opacity:0.939" fill="#935b35" d="M 24.5,30.5 C 26.188,44.1745 27.188,58.1745 27.5,72.5C 26.9027,75.9713 26.236,79.3046 25.5,82.5C 22.7589,80.0246 20.7589,77.0246 19.5,73.5C 20.3171,71.0314 20.8171,68.3647 21,65.5C 21.6667,66.8333 22.3333,66.8333 23,65.5C 23.1667,60.3333 23.3333,55.1667 23.5,50C 23.4946,44.4543 22.8279,39.2876 21.5,34.5C 22.5,33.1667 23.5,31.8333 24.5,30.5 Z"/></g>
<g><path style="opacity:1" fill="#8a522b" d="M 109.5,72.5 C 113.44,73.6215 115.273,76.2882 115,80.5C 115.667,87.5 115.667,94.5 115,101.5C 114.55,103.519 113.717,105.352 112.5,107C 111.256,107.456 110.423,106.956 110,105.5C 109.943,107.91 108.776,109.244 106.5,109.5C 105.174,105.386 104.507,100.886 104.5,96C 104.501,91.3205 104.834,86.8205 105.5,82.5C 106.11,84.8503 106.444,84.517 106.5,81.5C 106.89,78.2033 107.89,75.2033 109.5,72.5 Z"/></g>
<g><path style="opacity:1" fill="#98603c" d="M 109.5,72.5 C 107.89,75.2033 106.89,78.2033 106.5,81.5C 105.833,81.5 105.5,81.8333 105.5,82.5C 104.834,86.8205 104.501,91.3205 104.5,96C 104.507,100.886 105.174,105.386 106.5,109.5C 105.391,110.29 104.058,110.79 102.5,111C 104.256,111.202 105.922,111.702 107.5,112.5C 105.067,114.054 102.4,114.72 99.5,114.5C 98.1667,113.167 98.1667,111.833 99.5,110.5C 101.021,109.367 100.355,109.367 97.5,110.5C 95.0248,110.253 95.0248,109.587 97.5,108.5C 98.4988,97.5202 98.8321,86.5202 98.5,75.5C 100.598,74.065 102.931,72.8984 105.5,72C 107.066,71.235 108.399,71.4017 109.5,72.5 Z"/></g>
<g><path style="opacity:1" fill="#a6714f" d="M 98.5,75.5 C 98.8321,86.5202 98.4988,97.5202 97.5,108.5C 95.0248,109.587 95.0248,110.253 97.5,110.5C 98.1667,110.5 98.8333,110.5 99.5,110.5C 98.1667,111.833 98.1667,113.167 99.5,114.5C 96.8333,114.5 94.1667,114.5 91.5,114.5C 91.3379,112.473 91.5045,110.473 92,108.5C 92.3826,109.056 92.8826,109.389 93.5,109.5C 94.8333,109.167 94.8333,108.833 93.5,108.5C 93.8271,98.6522 93.4938,88.9856 92.5,79.5C 93.8021,77.1782 95.8021,75.8449 98.5,75.5 Z"/></g>
<g><path style="opacity:0.964" fill="#b17d5f" d="M 92.5,79.5 C 93.4938,88.9856 93.8271,98.6522 93.5,108.5C 93.5,108.833 93.5,109.167 93.5,109.5C 92.8826,109.389 92.3826,109.056 92,108.5C 91.5045,110.473 91.3379,112.473 91.5,114.5C 90.1667,114.5 88.8333,114.5 87.5,114.5C 87.2436,112.208 87.5769,110.041 88.5,108C 87.8482,100.401 87.1815,92.9013 86.5,85.5C 88.1667,83.1667 90.1667,81.1667 92.5,79.5 Z"/></g>
<g><path style="opacity:1" fill="#ae7959" d="M 33.5,79.5 C 33.6941,81.9118 35.0274,82.9118 37.5,82.5C 37.8168,86.7016 37.4834,90.7016 36.5,94.5C 34.0615,92.9732 32.0615,90.9732 30.5,88.5C 31.3213,85.3586 31.8213,82.0252 32,78.5C 32.3826,79.056 32.8826,79.3893 33.5,79.5 Z"/></g>
<g><path style="opacity:1" fill="#bc896d" d="M 86.5,85.5 C 87.1815,92.9013 87.8482,100.401 88.5,108C 87.5769,110.041 87.2436,112.208 87.5,114.5C 85.5,114.5 83.5,114.5 81.5,114.5C 83.4249,106.101 84.0915,97.434 83.5,88.5C 84.1667,87.1667 85.1667,86.1667 86.5,85.5 Z"/></g>
<g><path style="opacity:0.962" fill="#c6947a" d="M 83.5,88.5 C 84.0915,97.434 83.4249,106.101 81.5,114.5C 81.1667,114.5 80.8333,114.5 80.5,114.5C 80.1282,107.666 79.7949,100.666 79.5,93.5C 80.0798,91.2512 81.4131,89.5846 83.5,88.5 Z"/></g>
<g><path style="opacity:1" fill="#d3a28b" d="M 79.5,93.5 C 79.7949,100.666 80.1282,107.666 80.5,114.5C 77.6697,114.037 75.003,113.371 72.5,112.5C 72.5,109.167 72.5,105.833 72.5,102.5C 74.5917,99.319 76.925,96.319 79.5,93.5 Z"/></g>
</svg>
